<svg id="Grupo_108" data-name="Grupo 108" xmlns="http://www.w3.org/2000/svg" width="140.823" height="30" viewBox="0 0 140.823 30">
  <path id="Trazado_57" data-name="Trazado 57" d="M159.769,32.913h-4.58c-.206,0-.257-.1-.206-.309l7.257-20.638c.1-.206.206-.309.412-.309h4.58c.257,0,.309.1.206.309l-.463,1.235h.051a5.914,5.914,0,0,1,4.529-1.9c2.934,0,4.066,1.7,3.5,5.1a27.035,27.035,0,0,1-1.184,4.014,23.965,23.965,0,0,1-1.853,3.808,7.055,7.055,0,0,1-6.124,3.448c-1.853,0-2.882-.618-3.191-1.9h-.051L160.129,32.6a.376.376,0,0,1-.36.309m5.713-9.573a2.867,2.867,0,0,0,2.367-1.39,11.283,11.283,0,0,0,.978-2.162,13.368,13.368,0,0,0,.721-2.316c.206-1.287-.206-1.9-1.287-1.9a2.867,2.867,0,0,0-2.367,1.39,11.283,11.283,0,0,0-.978,2.162,13.368,13.368,0,0,0-.721,2.316c-.206,1.235.206,1.9,1.287,1.9" transform="translate(-75.21 -5.482)" fill="#ec7320"/>
  <path id="Trazado_58" data-name="Trazado 58" d="M197.363,21.873H195.51c-1.9,0-3.088-.412-3.6-1.235s-.36-2.213.257-4.117L197.981.309c.1-.206.206-.309.36-.309h4.58c.257,0,.309.1.206.309l-5.661,15.749a1.842,1.842,0,0,0-.1,1.132c.1.257.412.36.823.36h.618c.206,0,.257.1.206.309l-1.287,3.706a.34.34,0,0,1-.36.309" transform="translate(-92.991)" fill="#ec7320"/>
  <path id="Trazado_59" data-name="Trazado 59" d="M220,27.149h-4.272c-.257,0-.309-.1-.206-.309l.309-.978h-.051a6.517,6.517,0,0,1-4.58,1.647,3.567,3.567,0,0,1-2.728-1.029,3.088,3.088,0,0,1-.669-2.831,6.727,6.727,0,0,1,2.676-4.426,9.624,9.624,0,0,1,5.713-1.544h2.419a.37.37,0,0,0,.309-.206l.206-.566c.257-.618.206-1.029-.1-1.287a4.012,4.012,0,0,0-2.213-.36,6.978,6.978,0,0,0-3.551.875c-.206.1-.309.051-.36-.1l-.618-2.831a.391.391,0,0,1,.257-.463,12.665,12.665,0,0,1,6.433-1.544c2.419,0,4.066.412,4.889,1.287s.875,2.367.154,4.478l-3.5,9.83c-.206.257-.309.36-.515.36M214.237,23.8c1.6,0,2.573-.566,2.934-1.75l.36-1.029c.051-.1,0-.206-.1-.206h-1.8c-1.6,0-2.522.618-2.728,1.8-.154.823.257,1.184,1.338,1.184" transform="translate(-100.806 -5.431)" fill="#ec7320"/>
  <path id="Trazado_60" data-name="Trazado 60" d="M234.521,33.253h-1.132c-.206,0-.257-.1-.206-.309l1.287-3.6a.448.448,0,0,1,.463-.309h.772a2.506,2.506,0,0,0,1.287-.309,3.561,3.561,0,0,0,1.081-1.081l.669-1.029-.618-14.308a.273.273,0,0,1,.231-.309.281.281,0,0,1,.078,0h4.632c.206,0,.257.1.257.309l-.154,8.08h.051l5.3-8.08a.565.565,0,0,1,.515-.309h4.735c.257,0,.257.1.154.36L241.366,29.29a10.637,10.637,0,0,1-3.191,3.139,6.989,6.989,0,0,1-3.654.823" transform="translate(-113.164 -5.822)" fill="#ec7320"/>
  <path id="Trazado_61" data-name="Trazado 61" d="M6.433,23.993l-.309.978c-.463,1.493.154,1.853,1.544,1.853H9.521c1.7,0,2.059-.618,2.419-1.75l.36-1.132c.36-1.081.412-1.7-1.287-1.7H9.161c-1.441-.1-2.264.257-2.728,1.75M0,32.794,4.323,19.516H7.771l-.463,1.493a4.632,4.632,0,0,1,3.86-1.647H12.2c4.478,0,4.478,1.7,3.654,4.22l-.566,1.75c-.823,2.522-1.9,4.22-6.382,4.22H8.183c-2.007,0-2.625-.309-2.882-1.853L3.6,32.846H0ZM30.262,19.516l-3.191,9.83H23.52l.515-1.6A5.062,5.062,0,0,1,19.66,29.5c-2.213,0-5.25-.1-3.86-4.323l1.8-5.661h3.551L19.3,25.177c-.309.978.257,1.441,1.8,1.441h.875a3.028,3.028,0,0,0,3.139-2.162l1.6-4.941ZM27.534,29.4l3.191-9.881h3.551l-.515,1.6c1.132-1.39,2.47-1.75,4.375-1.75h6.382l.669-2.162h3.551l-.721,2.162h5.507L52.6,22.192H47.143L45.908,26c-.257.721.206.875,1.081.875,1.132,0,1.544-.257,1.853-1.184l.206-.669h3.088l-.412,1.184c-.618,1.9-2.264,3.294-5.1,3.294h-1.39c-2.213,0-3.86-.721-2.985-3.448l1.287-3.911H42.253a11.1,11.1,0,0,1-.309,1.493l-1.853,5.661H36.541l1.853-5.661c.309-.978-.257-1.441-1.853-1.441h-.823a3.028,3.028,0,0,0-3.139,2.162l-1.6,4.941H27.534Z" transform="translate(0 -8.348)" fill="#9a9a9a"/>
  <path id="Trazado_62" data-name="Trazado 62" d="M101.022,27.679l.772-2.367a5.141,5.141,0,0,1,5.2-3.911h5.3c1.8,0,3.706.669,2.625,3.911l-.772,2.367a5.141,5.141,0,0,1-5.2,3.911h-5.3c-1.8,0-3.654-.669-2.625-3.911m4.117-1.647-.309.926c-.463,1.441.206,1.853,1.8,1.853h.875c2.316,0,2.882-.309,3.294-1.647l.463-1.338c.412-1.338.1-1.647-2.213-1.647h-.875c-1.6,0-2.573.412-3.036,1.853" transform="translate(-48.887 -10.386)" fill="#9a9a9a"/>
  <path id="Trazado_63" data-name="Trazado 63" d="M136.3,14.668,122.1,2.213a2.115,2.115,0,0,0-3.5,1.6V8.955h4.58c2.831,0,5.713,1.029,4.066,6.073l-1.184,3.654c-1.544,4.683-4.735,5.867-7.463,6.022v4.014a2.12,2.12,0,0,0,3.5,1.6l14.2-12.455a2.1,2.1,0,0,0,0-3.191Z" transform="translate(-57.562 -0.824)" fill="#ec7320"/>
</svg>
