<svg id="Grupo_123" data-name="Grupo 123" xmlns="http://www.w3.org/2000/svg" width="17.529" height="17.529" viewBox="0 0 17.529 17.529">
  <g id="Grupo_120" data-name="Grupo 120" transform="translate(4.216 5.661)">
    <g id="Grupo_119" data-name="Grupo 119">
      <path id="Trazado_67" data-name="Trazado 67" d="M132.083,165.586a.71.71,0,0,0-1-.027l-4.537,4.3-2.164-2.222a.711.711,0,0,0-1.018.992l2.653,2.724a.711.711,0,0,0,1,.02l5.045-4.785A.71.71,0,0,0,132.083,165.586Z" transform="translate(-123.158 -165.364)" fill="#fff"/>
    </g>
  </g>
  <g id="Grupo_122" data-name="Grupo 122">
    <g id="Grupo_121" data-name="Grupo 121">
      <path id="Trazado_68" data-name="Trazado 68" d="M8.764,0a8.764,8.764,0,1,0,8.764,8.764A8.774,8.774,0,0,0,8.764,0Zm0,16.108a7.343,7.343,0,1,1,7.343-7.343A7.351,7.351,0,0,1,8.764,16.108Z" fill="#fff"/>
    </g>
  </g>
</svg>
