<svg xmlns="http://www.w3.org/2000/svg" width="14.709" height="14.709" viewBox="0 0 14.709 14.709">
  <g id="Grupo_117" data-name="Grupo 117" transform="translate(161)">
    <g id="Grupo_116" data-name="Grupo 116" transform="translate(-161)">
      <g id="Grupo_115" data-name="Grupo 115">
        <circle id="Elipse_3" data-name="Elipse 3" cx="0.718" cy="0.718" r="0.718" transform="translate(6.636 10.155)" fill="#ec741f"/>
        <path id="Trazado_65" data-name="Trazado 65" d="M-153.646,0A7.35,7.35,0,0,0-161,7.354a7.35,7.35,0,0,0,7.354,7.354,7.35,7.35,0,0,0,7.354-7.354A7.35,7.35,0,0,0-153.646,0Zm0,13.56a6.2,6.2,0,0,1-6.205-6.205,6.2,6.2,0,0,1,6.205-6.205,6.2,6.2,0,0,1,6.205,6.205A6.2,6.2,0,0,1-153.646,13.56Z" transform="translate(161)" fill="#ec741f"/>
        <path id="Trazado_66" data-name="Trazado 66" d="M17.3,128.5a2.3,2.3,0,0,0-2.3,2.3.575.575,0,0,0,1.149,0,1.149,1.149,0,1,1,1.149,1.149.575.575,0,0,0-.575.575v1.436a.575.575,0,0,0,1.149,0v-.935A2.3,2.3,0,0,0,17.3,128.5Z" transform="translate(-9.944 -124.808)" fill="#ec741f"/>
      </g>
    </g>
  </g>
</svg>
